<?xml version="1.0" ?><!DOCTYPE svg  PUBLIC '-//W3C//DTD SVG 1.1//EN'  'http://www.w3.org/Graphics/SVG/1.1/DTD/svg11.dtd'><svg height="339.586px" style="enable-background:new 0 0 340.095 339.586;" version="1.1" viewBox="0 0 340.095 339.586" width="340.095px" xml:space="preserve" xmlns="http://www.w3.org/2000/svg" xmlns:xlink="http://www.w3.org/1999/xlink"><g id="Layer_4"><g><path d="M194.006,170.05    c0,13.229-10.719,23.954-23.954,23.954c-13.229,0-23.953-10.725-23.953-23.954c0-13.229,10.724-23.963,23.953-23.963    C183.287,146.087,194.006,156.821,194.006,170.05z" style="fill:#70CACC;stroke:#00BCD4;stroke-width:10.7133;stroke-miterlimit:10;"/><path d="M182.377,222.397    c23.775-5.581,41.488-26.872,41.488-52.347c0-29.729-24.084-53.817-53.813-53.817c-29.729,0-53.817,24.089-53.817,53.817    c0,25.47,17.718,46.766,41.488,52.347" style="fill:none;stroke:#00BCD4;stroke-width:5.3566;stroke-miterlimit:10;"/><path d="M182.377,334.244    c85.193-6.309,152.361-77.389,152.361-164.194c0-90.953-73.732-164.693-164.686-164.693C79.099,5.357,5.356,79.097,5.356,170.05    c0,86.805,67.183,157.875,152.366,164.194" style="fill:none;stroke:#18FFFF;stroke-width:10.7133;stroke-miterlimit:10;"/><path d="M182.377,304.678    c68.894-6.235,122.879-64.112,122.879-134.627c0-74.674-60.529-135.213-135.204-135.213c-74.679,0-135.213,60.54-135.213,135.213    c0,70.515,53.99,128.403,122.884,134.627" style="fill:none;stroke:#18FFFF;stroke-width:5.3566;stroke-miterlimit:10;"/><path d="M182.377,275.326    c52.74-6.104,93.694-50.898,93.694-105.276c0-58.552-47.467-106.024-106.019-106.024c-58.552,0-106.019,47.472-106.019,106.024    c0,54.377,40.954,99.171,93.689,105.276" style="fill:none;stroke:#ffffff;stroke-width:5.3566;stroke-miterlimit:10;"/><path d="M182.377,247.8    c37.611-5.916,66.394-38.464,66.394-77.75c0-43.476-35.237-78.717-78.718-78.717c-43.476,0-78.723,35.242-78.723,78.717    c0,39.286,28.787,71.833,66.393,77.75" style="fill:none;stroke:#ffffff;stroke-width:5.3566;stroke-miterlimit:10;"/></g></g><g id="Layer_1"/></svg>