<svg xmlns="http://www.w3.org/2000/svg" xmlns:xlink="http://www.w3.org/1999/xlink" version="1.1" x="0px" y="0px" viewBox="0 0 40 50" enable-background="new 0 0 40 40" xml:space="preserve"><path fill-rule="evenodd" clip-rule="evenodd" d="M12.8,18.2c0-4.1,3.2-7.4,7.2-7.4c4,0,7.2,3.3,7.2,7.4  c0,2.9-1.6,5.3-4,6.6v2.4c3.6-1.3,6.1-4.8,6.1-8.9c0-5.3-4.2-9.5-9.4-9.5s-9.4,4.3-9.4,9.5c0,4.1,2.6,7.6,6.1,8.9v-2.4  C14.4,23.6,12.8,21.1,12.8,18.2z M25.6,18.2c0-3.1-2.5-5.7-5.6-5.7s-5.6,2.5-5.6,5.7c0,2.4,1.5,4.5,3.6,5.3V35h4V23.4  C24.1,22.6,25.6,20.6,25.6,18.2z M20,20.8c-1.5,0-2.7-1.2-2.7-2.7c0-1.5,1.2-2.7,2.7-2.7s2.7,1.2,2.7,2.7  C22.7,19.6,21.5,20.8,20,20.8z M20,5C12.8,5,7,10.9,7,18.2c0,6.1,4.2,11.3,9.8,12.8v-2.3c-4.4-1.4-7.6-5.6-7.6-10.5  c0-6.1,4.9-11,10.9-11c6,0,10.9,5,10.9,11c0,4.9-3.2,9.1-7.6,10.5V31c5.6-1.5,9.8-6.6,9.8-12.8C33,10.9,27.2,5,20,5z"/><text x="0" y="55" fill="#000000" font-size="5px" font-weight="bold" font-family="'Helvetica Neue', Helvetica, Arial-Unicode, Arial, Sans-serif">Created by Hello Many</text><text x="0" y="60" fill="#000000" font-size="5px" font-weight="bold" font-family="'Helvetica Neue', Helvetica, Arial-Unicode, Arial, Sans-serif">from the Noun Project</text></svg>